<svg width="24" height="25" viewBox="0 0 24 25" fill="none" xmlns="http://www.w3.org/2000/svg">
<path d="M0 12C0 5.37258 5.37258 0 12 0C18.6274 0 24 5.37258 24 12V13C24 19.6274 18.6274 25 12 25C5.37258 25 0 19.6274 0 13V12Z" fill="black"/>
<path d="M11.9912 21.7422C16.9746 21.7422 21.0879 17.6289 21.0879 12.6543C21.0879 10.6416 20.4111 8.76953 19.2773 7.25781L19.9805 6.55469C20.209 6.32617 20.332 6.05371 20.332 5.79004C20.332 5.24512 19.9014 4.81445 19.3477 4.81445C19.0225 4.81445 18.7939 4.91113 18.5654 5.13086L17.9062 5.78125C16.5527 4.6123 14.8564 3.83887 13.0107 3.61914V2.73145C13.0107 2.15137 12.5537 1.68555 11.9912 1.68555C11.4375 1.68555 10.9717 2.15137 10.9717 2.73145V3.61914C6.46289 4.1377 2.90332 8.02246 2.90332 12.6543C2.90332 17.6289 7.0166 21.7422 11.9912 21.7422ZM11.9912 19.9316C7.95703 19.9316 4.73145 16.6885 4.73145 12.6543C4.73145 8.62012 7.95703 5.38574 11.9824 5.38574C16.0166 5.38574 19.2598 8.62012 19.2686 12.6543C19.2773 16.6885 16.0254 19.9316 11.9912 19.9316ZM11.9912 14.1836C12.835 14.1836 13.5117 13.498 13.5117 12.6631C13.5117 12.083 13.1865 11.5908 12.6943 11.3184V7.27539C12.6943 6.87988 12.3867 6.57227 11.9824 6.57227C11.5957 6.57227 11.2881 6.87988 11.2881 7.27539V11.3184C10.7959 11.5908 10.4707 12.0918 10.4707 12.6631C10.4707 13.498 11.1475 14.1836 11.9912 14.1836Z" fill="white"/>
</svg>
